<svg width="20px" height="20px" viewBox="0 0 20 20" version="1.1"
                    xmlns="http://www.w3.org/2000/svg" xmlns:xlink="http://www.w3.org/1999/xlink">
                    <g id="Page-1" stroke="none" stroke-width="1" fill="none" fill-rule="evenodd">
                        <g id="chat_option_01" transform="translate(-266.000000, -579.000000)" fill="#003169"
                            fill-rule="nonzero">
                            <g id="button_chat-close_static" transform="translate(246.000000, 559.000000)">
                                <g id="Group-4" transform="translate(20.000000, 20.000000)">
                                    <path
                                        d="M6.18869049,10 L0.789348044,4.60065755 C-0.263116015,3.54819349 -0.263116015,1.8418121 0.789348044,0.789348044 C1.8418121,-0.263116015 3.54819349,-0.263116015 4.60065755,0.789348044 L10,6.18869049 L15.3993425,0.789348044 C16.4518065,-0.263116015 18.1581879,-0.263116015 19.210652,0.789348044 C20.263116,1.8418121 20.263116,3.54819349 19.210652,4.60065755 L13.8113095,10 L19.210652,15.3993425 C20.263116,16.4518065 20.263116,18.1581879 19.210652,19.210652 C18.1581879,20.263116 16.4518065,20.263116 15.3993425,19.210652 L10,13.8113095 L4.60065755,19.210652 C3.54819349,20.263116 1.8418121,20.263116 0.789348044,19.210652 C-0.263116015,18.1581879 -0.263116015,16.4518065 0.789348044,15.3993425 L6.18869049,10 Z"
                                        id="Combined-Shape"></path>
                                </g>
                            </g>
                        </g>
                    </g>
                </svg>